<svg width="219" height="217" viewBox="0 0 219 217" fill="none" xmlns="http://www.w3.org/2000/svg">
<g clip-path="url(#clip0)">
<rect width="219" height="217" fill="white"/>
<path d="M177.696 11.08C184.8 11.08 189.984 12.904 193.248 16.552C196.704 20.2 198.432 25.864 198.432 33.544C198.432 48.712 198.336 60.136 198.144 67.816L197.856 110.44C197.856 139.624 196.992 161.416 195.264 175.816C193.728 190.216 190.752 200.2 186.336 205.768C181.92 211.336 175.2 214.12 166.176 214.12C159.264 214.12 152.832 211.912 146.88 207.496C141.12 203.08 134.496 195.784 127.008 185.608C119.712 175.432 109.44 159.784 96.192 138.664L62.208 83.656C62.4 90.76 62.496 104.008 62.496 123.4L62.784 196.84C62.784 201.832 60.768 206.056 56.736 209.512C52.896 212.968 47.904 214.696 41.76 214.696C35.616 214.696 30.528 213.064 26.496 209.8C22.656 206.344 20.736 202.024 20.736 196.84V121.672L20.448 90.28C20.256 84.904 20.16 77.32 20.16 67.528C20.16 53.32 20.736 42.376 21.888 34.696C23.232 27.016 25.632 21.544 29.088 18.28C32.544 14.824 37.728 13.096 44.64 13.096C51.36 13.096 57.408 15.112 62.784 19.144C68.352 23.176 74.784 30.376 82.08 40.744C89.568 51.112 100.704 68.104 115.488 91.72C123.36 104.2 135.072 123.208 150.624 148.744L156.096 157.96V110.44L156.384 28.936C156.384 23.752 158.112 19.528 161.568 16.264C165.024 12.808 170.4 11.08 177.696 11.08Z" fill="#E0234E"/>
</g>
<defs>
<clipPath id="clip0">
<rect width="219" height="217" fill="white"/>
</clipPath>
</defs>
</svg>
